<svg width="91" height="41" viewBox="0 0 91 41" fill="none" xmlns="http://www.w3.org/2000/svg">
<path d="M25.3835 1C20.9132 5.08602 17.5808 13.5032 40.0137 14.4839C40.8265 13.2581 42.3301 9.58065 41.8425 4.67742L43.6712 10.1935H46.7192L48.5479 4.67742C48.7511 7.94624 49.5233 14.4839 50.9863 14.4839C59.7237 14.2796 75.126 11.2968 66.8356 1C73.5411 2.43011 87.5616 8.72258 90 22.4516C82.2785 21.0215 67.3233 20.4903 69.274 29.8065C64.3973 26.9462 52.8151 24.7806 45.5 39C42.4521 33.4839 33.5521 23.9226 22.3356 29.8065C22.9452 25.9247 19.5315 19.0194 1 22.4516C2.62556 16.1183 9.77806 2.96129 25.3835 1Z" fill="black" stroke="black"/>
</svg>
