<svg width="39" height="39" viewBox="0 0 39 39" fill="none" xmlns="http://www.w3.org/2000/svg">
<path d="M3.69326 9.99287L11.3214 16.3185L1.64151 14.8415L1.39127 15.8042L10.6075 19.2438L0.969717 21.0778L1.05402 22.0689L10.8474 22.2486L2.30742 27.1997L2.71582 28.1067L12.0176 25.0167L5.5109 32.5413L6.19423 33.2645L14.0004 27.2513L10.2318 36.5217L11.112 36.9858L16.5883 28.7041L15.956 38.7093L16.9383 38.869L19.5 29.2082L22.0617 38.869L23.044 38.7093L22.4117 28.7041L27.888 36.9858L28.7682 36.5217L24.9996 27.2513L32.8058 33.2645L33.4891 32.5413L26.9824 25.0167L36.2842 28.1067L36.6926 27.1997L28.1526 22.2486L37.946 22.0689L38.0303 21.0778L28.3925 19.2438L37.6087 15.8042L37.3585 14.8415L27.6786 16.3185L35.3067 9.99287L34.7526 9.16662L26.0816 13.7823L31.2895 5.26721L30.4966 4.66602L23.7652 11.9119L25.9944 2.14069L25.0506 1.82505L20.9766 10.9188L19.9976 0.951125H19.0024L18.0234 10.9188L13.9494 1.82505L13.0056 2.14069L15.2348 11.9119L8.50338 4.66602L7.71052 5.26721L12.9184 13.7823L4.24736 9.16662L3.69326 9.99287Z" fill="#FFC804" stroke="black"/>
</svg>
