<svg width="35" height="16" viewBox="0 0 35 16" fill="none" xmlns="http://www.w3.org/2000/svg">
<path d="M0.568293 11.8184C0.698166 14.6756 3.23069 15.8445 4.52941 15.8445H9.07496C9.1399 15.8445 9.1399 15.8445 9.1399 15.8445C11.088 15.7146 13.0361 14.4159 13.0361 11.8184V10.26C15.179 10.26 20.1142 10.26 22.2571 10.26V11.8184C22.2571 14.4159 24.2051 15.7146 26.1532 15.8445H26.2182H30.6988C31.9975 15.8445 34.53 14.6756 34.6599 11.8184C34.6599 11.6236 34.6599 10.9093 34.6599 10.26C34.6599 9.74046 34.6599 9.28591 34.6599 9.22097C34.6599 9.15604 34.6599 9.0911 34.6599 9.0911C34.4651 7.27288 33.8157 5.77934 32.7118 4.61049L32.6469 4.54555C31.0235 3.05201 29.0754 2.20784 27.5818 1.68835C23.2311 0 17.7764 0 17.5167 0C13.6855 0.0649364 11.2179 0.389618 7.51649 1.68835C6.08789 2.1429 4.1398 2.98708 2.51639 4.48061L2.45145 4.54555C1.34753 5.7144 0.698166 7.20794 0.503357 9.02616C0.503357 9.0911 0.503357 9.15604 0.503357 9.15604C0.503357 9.28591 0.503357 9.67553 0.503357 10.195C0.568293 10.7794 0.568293 11.5587 0.568293 11.8184ZM4.07486 6.10402C5.37359 4.93517 6.997 4.22087 8.36066 3.70138C11.7374 2.46758 13.9452 2.20784 17.6466 2.1429C17.9063 2.1429 22.9714 2.20784 26.8675 3.70138C28.2312 4.22087 29.8546 4.87023 31.1533 6.10402C31.8676 6.88326 32.3222 7.92224 32.4521 9.15604C32.4521 9.35084 32.4521 9.67553 32.4521 10.195C32.4521 10.8444 32.4521 11.5587 32.4521 11.7535C32.3871 13.247 30.9585 13.5717 30.7637 13.5717H26.2831C25.6338 13.5068 24.5948 13.247 24.5948 11.8184V9.15604C24.5948 8.63654 24.2701 8.24693 23.8155 8.05212C23.4259 7.92224 12.062 7.92224 11.6724 8.05212C11.2179 8.18199 10.8932 8.63654 10.8932 9.15604V11.8184C10.8932 13.247 9.8542 13.5068 9.20484 13.5717H4.72422C4.52941 13.5717 3.10081 13.247 3.03588 11.7535C3.03588 11.5587 3.03588 10.8444 3.03588 10.195C3.03588 9.67553 3.03588 9.41578 3.03588 9.22097C2.906 7.92224 3.36056 6.88326 4.07486 6.10402Z" fill="#3056D3"/>
</svg>
