<svg width="37" height="20" viewBox="0 0 37 20" fill="none" xmlns="http://www.w3.org/2000/svg">
<path d="M34.7508 3.05205C34.6209 1.55852 33.3871 0.519531 31.8936 0.519531H4.23067C2.73714 0.519531 1.56828 1.62345 1.37347 3.05205L0.00980639 16.6887C-0.05513 17.4679 0.204616 18.3121 0.724107 18.8965C1.2436 19.481 2.02284 19.8056 2.86701 19.8056H33.3222C34.1014 19.8056 34.8807 19.481 35.4651 18.8965C35.9846 18.3121 36.2443 17.5329 36.1794 16.6887L34.7508 3.05205ZM33.7118 17.403C33.6469 17.4679 33.517 17.5978 33.2573 17.5978H2.86701C2.6722 17.5978 2.47739 17.4679 2.41245 17.403C2.34752 17.3381 2.21764 17.2082 2.28258 16.9484L3.64625 3.24686C3.64625 2.92218 3.90599 2.72737 4.23067 2.72737H31.9585C32.2832 2.72737 32.478 2.92218 32.543 3.24686L33.9066 16.9484C33.8417 17.1433 33.7767 17.3381 33.7118 17.403Z" fill="#3056D3"/>
</svg>
